<svg width="1200" height="720" viewBox="0 0 1200 720" fill="none" xmlns="http://www.w3.org/2000/svg">
<rect width="1200" height="720" rx="36" fill="#130B18"/>
<rect width="1200" height="720" rx="36" fill="url(#g)"/>
<defs><linearGradient id="g" x1="80" y1="70" x2="1110" y2="650" gradientUnits="userSpaceOnUse"><stop stop-color="#1E1B4B"/><stop offset="1" stop-color="#3F0D1F"/></linearGradient></defs>
<text x="64" y="96" fill="#FB7185" font-family="Arial" font-size="22" font-weight="700">RETENTION ANALYTICS</text>
<text x="64" y="154" fill="#F8FAFC" font-family="Arial" font-size="52" font-weight="700">Customer Churn Prediction</text>
<text x="64" y="198" fill="#CBD5E1" font-family="Arial" font-size="24">Risk segmentation, feature signals, and model-led retention focus</text>
<circle cx="280" cy="418" r="150" fill="#EF4444" fill-opacity="0.14"/>
<circle cx="280" cy="418" r="104" fill="#EF4444" fill-opacity="0.22"/>
<circle cx="280" cy="418" r="62" fill="#EF4444" fill-opacity="0.34"/>
<text x="210" y="412" fill="#F8FAFC" font-family="Arial" font-size="28" font-weight="700">18.4%</text>
<text x="196" y="444" fill="#FCA5A5" font-family="Arial" font-size="18">churn risk</text>
<rect x="500" y="270" width="620" height="320" rx="30" fill="#111827" stroke="#FB7185" stroke-opacity="0.3"/>
<text x="536" y="316" fill="#F8FAFC" font-family="Arial" font-size="28" font-weight="700">Feature impact</text>
<rect x="540" y="346" width="420" height="28" rx="14" fill="#1E293B"/>
<rect x="540" y="400" width="320" height="28" rx="14" fill="#1E293B"/>
<rect x="540" y="454" width="250" height="28" rx="14" fill="#1E293B"/>
<rect x="540" y="346" width="360" height="28" rx="14" fill="#EF4444" fill-opacity="0.76"/>
<rect x="540" y="400" width="250" height="28" rx="14" fill="#F59E0B" fill-opacity="0.76"/>
<rect x="540" y="454" width="180" height="28" rx="14" fill="#A855F7" fill-opacity="0.76"/>
<text x="974" y="366" fill="#E2E8F0" font-family="Arial" font-size="18">Contract type</text>
<text x="874" y="420" fill="#E2E8F0" font-family="Arial" font-size="18">Tenure</text>
<text x="804" y="474" fill="#E2E8F0" font-family="Arial" font-size="18">Support calls</text>
</svg>