<svg width="1200" height="720" viewBox="0 0 1200 720" fill="none" xmlns="http://www.w3.org/2000/svg">
<rect width="1200" height="720" rx="28" fill="#140c18"/>
<rect x="24" y="24" width="1152" height="672" rx="24" fill="#111827" stroke="#31213d"/>
<rect x="24" y="24" width="1152" height="56" rx="24" fill="#16101d"/>
<circle cx="58" cy="52" r="7" fill="#ef4444"/><circle cx="82" cy="52" r="7" fill="#f59e0b"/><circle cx="106" cy="52" r="7" fill="#22c55e"/>
<rect x="56" y="108" width="320" height="560" rx="24" fill="#16101d" stroke="#3f233e"/>
<rect x="398" y="108" width="722" height="560" rx="24" fill="#111827" stroke="#fb7185" stroke-opacity="0.22"/>
<text x="84" y="156" fill="#f8fafc" font-family="Arial" font-size="24" font-weight="700">Churn risk summary</text>
<circle cx="214" cy="310" r="92" fill="#7f1d1d"/>
<circle cx="214" cy="310" r="66" fill="#ef4444" fill-opacity="0.65"/>
<text x="164" y="306" fill="#fff" font-family="Arial" font-size="30" font-weight="700">18.4%</text>
<text x="168" y="338" fill="#fecaca" font-family="Arial" font-size="18">at risk</text>
<rect x="84" y="450" width="244" height="20" rx="10" fill="#1f2937"/><rect x="84" y="484" width="210" height="20" rx="10" fill="#1f2937"/><rect x="84" y="518" width="182" height="20" rx="10" fill="#1f2937"/>
<text x="430" y="156" fill="#f8fafc" font-family="Arial" font-size="24" font-weight="700">Feature importance</text>
<rect x="430" y="198" width="480" height="26" rx="13" fill="#1f2937"/><rect x="430" y="248" width="390" height="26" rx="13" fill="#1f2937"/><rect x="430" y="298" width="310" height="26" rx="13" fill="#1f2937"/><rect x="430" y="348" width="260" height="26" rx="13" fill="#1f2937"/>
<rect x="430" y="198" width="404" height="26" rx="13" fill="#ef4444" fill-opacity="0.84"/><rect x="430" y="248" width="324" height="26" rx="13" fill="#f59e0b" fill-opacity="0.84"/><rect x="430" y="298" width="246" height="26" rx="13" fill="#a855f7" fill-opacity="0.84"/><rect x="430" y="348" width="190" height="26" rx="13" fill="#38bdf8" fill-opacity="0.84"/>
<text x="936" y="216" fill="#e2e8f0" font-family="Arial" font-size="18">Contract</text><text x="846" y="266" fill="#e2e8f0" font-family="Arial" font-size="18">Tenure</text><text x="768" y="316" fill="#e2e8f0" font-family="Arial" font-size="18">Support calls</text><text x="642" y="366" fill="#e2e8f0" font-family="Arial" font-size="18">Monthly charges</text>
<rect x="430" y="432" width="632" height="166" rx="24" fill="#16101d"/>
<path d="M458 556C520 542 560 516 612 496C674 472 712 430 768 406C826 382 876 384 934 350C972 326 1008 302 1036 286" stroke="#fb7185" stroke-width="8" stroke-linecap="round"/>
</svg>