<svg width="1200" height="720" viewBox="0 0 1200 720" fill="none" xmlns="http://www.w3.org/2000/svg">
<rect width="1200" height="720" rx="28" fill="#091423"/>
<rect x="24" y="24" width="1152" height="672" rx="24" fill="#0f172a" stroke="#223145"/>
<rect x="24" y="24" width="1152" height="56" rx="24" fill="#101826"/>
<circle cx="58" cy="52" r="7" fill="#ef4444"/><circle cx="82" cy="52" r="7" fill="#f59e0b"/><circle cx="106" cy="52" r="7" fill="#22c55e"/>
<rect x="56" y="108" width="220" height="560" rx="24" fill="#101826" stroke="#223145"/>
<rect x="300" y="108" width="820" height="560" rx="24" fill="#111827" stroke="#38bdf8" stroke-opacity="0.28"/>
<rect x="332" y="140" width="220" height="110" rx="22" fill="#172554"/>
<rect x="570" y="140" width="220" height="110" rx="22" fill="#0f766e" fill-opacity="0.55"/>
<rect x="808" y="140" width="280" height="110" rx="22" fill="#1e293b"/>
<rect x="332" y="276" width="756" height="156" rx="24" fill="#0f1c2d"/>
<rect x="332" y="454" width="756" height="42" rx="12" fill="#1f2937"/>
<rect x="332" y="512" width="756" height="42" rx="12" fill="#1f2937"/>
<rect x="332" y="570" width="756" height="42" rx="12" fill="#1f2937"/>
<path d="M362 382C420 370 456 330 516 336C582 342 620 286 690 292C760 298 794 258 864 266C934 274 986 238 1052 226" stroke="#38bdf8" stroke-width="8" stroke-linecap="round"/>
<text x="364" y="188" fill="#f8fafc" font-family="Arial" font-size="28" font-weight="700">Revenue</text>
<text x="364" y="220" fill="#cbd5e1" font-family="Arial" font-size="20">$84,200</text>
<text x="602" y="188" fill="#f8fafc" font-family="Arial" font-size="28" font-weight="700">Orders</text>
<text x="602" y="220" fill="#d1fae5" font-family="Arial" font-size="20">1,284</text>
<text x="840" y="188" fill="#f8fafc" font-family="Arial" font-size="28" font-weight="700">Users</text>
<text x="840" y="220" fill="#cbd5e1" font-family="Arial" font-size="20">9,420</text>
</svg>