<svg width="1200" height="720" viewBox="0 0 1200 720" fill="none" xmlns="http://www.w3.org/2000/svg">
<rect width="1200" height="720" rx="24" fill="#091220"/>
<rect x="20" y="20" width="1160" height="680" rx="22" fill="#101826" stroke="#243142"/>
<rect x="20" y="20" width="1160" height="52" rx="22" fill="#0f172a"/>
<circle cx="50" cy="46" r="6" fill="#ef4444"/><circle cx="72" cy="46" r="6" fill="#f59e0b"/><circle cx="94" cy="46" r="6" fill="#22c55e"/>
<rect x="120" y="34" width="220" height="24" rx="12" fill="#1f2937"/>
<rect x="40" y="92" width="208" height="588" rx="20" fill="#0f172a"/>
<rect x="266" y="92" width="894" height="588" rx="20" fill="#111827" stroke="#38bdf8" stroke-opacity="0.22"/>
<rect x="292" y="118" width="254" height="110" rx="20" fill="#172554"/>
<rect x="562" y="118" width="254" height="110" rx="20" fill="#0f766e" fill-opacity="0.55"/>
<rect x="832" y="118" width="302" height="110" rx="20" fill="#1f2937"/>
<rect x="292" y="248" width="842" height="180" rx="22" fill="#0f1c2d"/>
<rect x="292" y="448" width="842" height="44" rx="12" fill="#1f2937"/>
<rect x="292" y="506" width="842" height="44" rx="12" fill="#1f2937"/>
<rect x="292" y="564" width="842" height="44" rx="12" fill="#1f2937"/>
<path d="M324 372C392 356 438 320 502 326C568 332 620 290 688 296C754 302 804 258 868 266C934 274 994 236 1100 212" stroke="#38bdf8" stroke-width="8" stroke-linecap="round"/>
<text x="322" y="164" fill="#F8FAFC" font-family="Arial" font-size="28" font-weight="700">Revenue</text>
<text x="322" y="198" fill="#CBD5E1" font-family="Arial" font-size="20">$84,200</text>
<text x="592" y="164" fill="#F8FAFC" font-family="Arial" font-size="28" font-weight="700">Orders</text>
<text x="592" y="198" fill="#D1FAE5" font-family="Arial" font-size="20">1,284</text>
<text x="862" y="164" fill="#F8FAFC" font-family="Arial" font-size="28" font-weight="700">Users</text>
<text x="862" y="198" fill="#CBD5E1" font-family="Arial" font-size="20">9,420</text>
</svg>