<svg width="1200" height="720" viewBox="0 0 1200 720" fill="none" xmlns="http://www.w3.org/2000/svg">
<rect width="1200" height="720" rx="36" fill="#081225"/>
<rect width="1200" height="720" rx="36" fill="url(#g)"/>
<defs><linearGradient id="g" x1="80" y1="60" x2="1120" y2="660" gradientUnits="userSpaceOnUse"><stop stop-color="#0F172A"/><stop offset="1" stop-color="#0B3B70"/></linearGradient></defs>
<text x="64" y="96" fill="#38BDF8" font-family="Arial" font-size="22" font-weight="700">ADMIN DASHBOARD UI</text>
<text x="64" y="154" fill="#F8FAFC" font-family="Arial" font-size="52" font-weight="700">Frontend E-Commerce Dashboard</text>
<text x="64" y="198" fill="#94A3B8" font-family="Arial" font-size="24">Sales overview, orders table, and product-style analytics layout</text>
<rect x="64" y="248" width="220" height="390" rx="28" fill="#0F172A" stroke="#334155"/>
<rect x="310" y="248" width="826" height="390" rx="28" fill="#111827" stroke="#38BDF8" stroke-opacity="0.35"/>
<rect x="342" y="284" width="230" height="110" rx="24" fill="#172554"/>
<rect x="592" y="284" width="230" height="110" rx="24" fill="#0F766E" fill-opacity="0.7"/>
<rect x="842" y="284" width="260" height="110" rx="24" fill="#1E293B"/>
<rect x="342" y="420" width="760" height="40" rx="12" fill="#1E293B"/>
<rect x="342" y="476" width="760" height="40" rx="12" fill="#1E293B"/>
<rect x="342" y="532" width="760" height="40" rx="12" fill="#1E293B"/>
<text x="374" y="350" fill="#F8FAFC" font-family="Arial" font-size="28" font-weight="700">Revenue</text>
<text x="374" y="382" fill="#CBD5E1" font-family="Arial" font-size="20">$84,200</text>
<text x="624" y="350" fill="#F8FAFC" font-family="Arial" font-size="28" font-weight="700">Orders</text>
<text x="624" y="382" fill="#D1FAE5" font-family="Arial" font-size="20">1,284</text>
<text x="878" y="350" fill="#F8FAFC" font-family="Arial" font-size="28" font-weight="700">Users</text>
<text x="878" y="382" fill="#CBD5E1" font-family="Arial" font-size="20">9,420</text>
</svg>