<svg width="1200" height="720" viewBox="0 0 1200 720" fill="none" xmlns="http://www.w3.org/2000/svg">
<rect width="1200" height="720" rx="36" fill="#0B1020"/>
<rect width="1200" height="720" rx="36" fill="url(#g)"/>
<defs><linearGradient id="g" x1="70" y1="60" x2="1110" y2="650" gradientUnits="userSpaceOnUse"><stop stop-color="#172554"/><stop offset="1" stop-color="#1E1B4B"/></linearGradient></defs>
<text x="64" y="96" fill="#60A5FA" font-family="Arial" font-size="22" font-weight="700">TIME-SERIES FORECASTING</text>
<text x="64" y="154" fill="#F8FAFC" font-family="Arial" font-size="52" font-weight="700">Analytics Sales Forecasting</text>
<text x="64" y="198" fill="#CBD5E1" font-family="Arial" font-size="24">ARIMA-based trend analysis and future sales projection</text>
<rect x="80" y="260" width="1040" height="340" rx="28" fill="#111827" stroke="#60A5FA" stroke-opacity="0.35"/>
<path d="M136 512C206 490 240 454 308 446C378 438 422 384 492 392C564 400 604 334 678 344C752 354 796 274 870 286C938 296 1000 238 1062 224" stroke="#60A5FA" stroke-width="8" stroke-linecap="round"/>
<path d="M136 544C206 528 240 504 308 496C378 488 422 454 492 458C564 462 604 414 678 422C752 430 796 372 870 380C938 388 1000 338 1062 320" stroke="#A855F7" stroke-width="8" stroke-dasharray="18 16" stroke-linecap="round"/>
<text x="140" y="594" fill="#CBD5E1" font-family="Arial" font-size="20">Historical trend</text>
<text x="340" y="594" fill="#C4B5FD" font-family="Arial" font-size="20">Forecast projection</text>
</svg>