<svg width="1200" height="720" viewBox="0 0 1200 720" fill="none" xmlns="http://www.w3.org/2000/svg">
<rect width="1200" height="720" rx="36" fill="#0B1020"/>
<rect x="0" y="0" width="1200" height="720" rx="36" fill="url(#g1)"/>
<defs>
  <linearGradient id="g1" x1="90" y1="80" x2="1110" y2="660" gradientUnits="userSpaceOnUse">
    <stop stop-color="#0F172A"/>
    <stop offset="1" stop-color="#111827"/>
  </linearGradient>
</defs>
<text x="64" y="96" fill="#22D3EE" font-family="Arial" font-size="22" font-weight="700">KANBAN WORKFLOW</text>
<text x="64" y="154" fill="#F8FAFC" font-family="Arial" font-size="52" font-weight="700">Frontend Kanban Board</text>
<text x="64" y="198" fill="#94A3B8" font-family="Arial" font-size="24">Drag-and-drop task movement with clear lane structure</text>
<rect x="62" y="250" width="300" height="360" rx="28" fill="#111827" stroke="#334155"/>
<rect x="382" y="250" width="300" height="360" rx="28" fill="#0F172A" stroke="#22D3EE" stroke-opacity="0.35"/>
<rect x="702" y="250" width="300" height="360" rx="28" fill="#111827" stroke="#334155"/>
<text x="92" y="294" fill="#CBD5E1" font-family="Arial" font-size="24" font-weight="700">Backlog</text>
<text x="412" y="294" fill="#CFFAFE" font-family="Arial" font-size="24" font-weight="700">In Progress</text>
<text x="732" y="294" fill="#CBD5E1" font-family="Arial" font-size="24" font-weight="700">Done</text>
<rect x="92" y="326" width="240" height="72" rx="18" fill="#1E293B"/>
<rect x="92" y="416" width="210" height="72" rx="18" fill="#1E293B"/>
<rect x="412" y="326" width="240" height="96" rx="18" fill="#155E75" fill-opacity="0.55" stroke="#22D3EE"/>
<rect x="412" y="442" width="220" height="72" rx="18" fill="#4C1D95" fill-opacity="0.55" stroke="#A78BFA"/>
<rect x="732" y="326" width="224" height="72" rx="18" fill="#1E293B"/>
<rect x="732" y="416" width="200" height="72" rx="18" fill="#1E293B"/>
<circle cx="1070" cy="138" r="74" fill="#22D3EE" fill-opacity="0.12"/>
<text x="432" y="362" fill="#F8FAFC" font-family="Arial" font-size="20" font-weight="700">Sprint planning</text>
<text x="432" y="390" fill="#CFFAFE" font-family="Arial" font-size="16">Priority board with movement states</text>
</svg>