<svg width="1200" height="720" viewBox="0 0 1200 720" fill="none" xmlns="http://www.w3.org/2000/svg">
<rect width="1200" height="720" rx="28" fill="#0b1020"/>
<rect x="24" y="24" width="1152" height="672" rx="24" fill="#0f172a" stroke="#263244"/>
<rect x="24" y="24" width="1152" height="56" rx="24" fill="#111827"/>
<circle cx="58" cy="52" r="7" fill="#ef4444"/><circle cx="82" cy="52" r="7" fill="#f59e0b"/><circle cx="106" cy="52" r="7" fill="#22c55e"/>
<rect x="136" y="40" width="220" height="24" rx="12" fill="#1f2937"/>
<rect x="56" y="110" width="320" height="560" rx="22" fill="#101826" stroke="#223145"/>
<rect x="390" y="110" width="320" height="560" rx="22" fill="#0f1c2d" stroke="#22d3ee" stroke-opacity="0.28"/>
<rect x="724" y="110" width="320" height="560" rx="22" fill="#101826" stroke="#223145"/>
<text x="84" y="148" fill="#cbd5e1" font-family="Arial" font-size="22" font-weight="700">Backlog</text>
<text x="418" y="148" fill="#cffafe" font-family="Arial" font-size="22" font-weight="700">In Progress</text>
<text x="752" y="148" fill="#cbd5e1" font-family="Arial" font-size="22" font-weight="700">Done</text>
<rect x="84" y="176" width="74" height="18" rx="9" fill="#1f2937"/><rect x="418" y="176" width="74" height="18" rx="9" fill="#164e63"/><rect x="752" y="176" width="74" height="18" rx="9" fill="#1f2937"/>
<rect x="84" y="222" width="264" height="118" rx="18" fill="#172233"/><rect x="84" y="356" width="232" height="104" rx="18" fill="#172233"/><rect x="84" y="476" width="250" height="96" rx="18" fill="#172233"/>
<rect x="418" y="222" width="264" height="144" rx="18" fill="#155e75" fill-opacity="0.35" stroke="#22d3ee"/><rect x="418" y="382" width="230" height="110" rx="18" fill="#4c1d95" fill-opacity="0.35" stroke="#a78bfa"/>
<rect x="752" y="222" width="240" height="92" rx="18" fill="#172233"/><rect x="752" y="330" width="212" height="88" rx="18" fill="#172233"/><rect x="752" y="434" width="236" height="92" rx="18" fill="#172233"/>
<rect x="106" y="244" width="160" height="12" rx="6" fill="#e2e8f0"/><rect x="106" y="266" width="110" height="10" rx="5" fill="#64748b"/>
<rect x="440" y="244" width="178" height="12" rx="6" fill="#f8fafc"/><rect x="440" y="268" width="134" height="10" rx="5" fill="#bae6fd"/>
<rect x="774" y="244" width="134" height="12" rx="6" fill="#e2e8f0"/><rect x="774" y="266" width="102" height="10" rx="5" fill="#64748b"/>
</svg>