<svg width="1200" height="720" viewBox="0 0 1200 720" fill="none" xmlns="http://www.w3.org/2000/svg">
<rect width="1200" height="720" rx="24" fill="#0b1020"/>
<rect x="20" y="20" width="1160" height="680" rx="22" fill="#111827" stroke="#263244"/>
<rect x="20" y="20" width="1160" height="52" rx="22" fill="#0f172a"/>
<circle cx="50" cy="46" r="6" fill="#ef4444"/><circle cx="72" cy="46" r="6" fill="#f59e0b"/><circle cx="94" cy="46" r="6" fill="#22c55e"/>
<rect x="122" y="34" width="180" height="24" rx="12" fill="#1f2937"/>
<rect x="40" y="92" width="220" height="588" rx="20" fill="#0f172a"/>
<rect x="284" y="92" width="286" height="588" rx="20" fill="#101826" stroke="#223145"/>
<rect x="584" y="92" width="286" height="588" rx="20" fill="#0f1c2d" stroke="#22d3ee" stroke-opacity="0.25"/>
<rect x="884" y="92" width="286" height="588" rx="20" fill="#101826" stroke="#223145"/>
<rect x="64" y="116" width="172" height="34" rx="14" fill="#172554"/>
<rect x="64" y="168" width="172" height="12" rx="6" fill="#334155"/>
<rect x="64" y="196" width="152" height="12" rx="6" fill="#334155"/>
<text x="314" y="134" fill="#CBD5E1" font-family="Arial" font-size="20" font-weight="700">Backlog</text>
<text x="614" y="134" fill="#CFFAFE" font-family="Arial" font-size="20" font-weight="700">In Progress</text>
<text x="914" y="134" fill="#CBD5E1" font-family="Arial" font-size="20" font-weight="700">Completed</text>
<rect x="314" y="160" width="226" height="116" rx="18" fill="#172233"/>
<rect x="314" y="292" width="246" height="102" rx="18" fill="#172233"/>
<rect x="314" y="410" width="220" height="94" rx="18" fill="#172233"/>
<rect x="614" y="160" width="226" height="138" rx="18" fill="#164e63" fill-opacity="0.45" stroke="#22d3ee"/>
<rect x="614" y="316" width="248" height="116" rx="18" fill="#3b0764" fill-opacity="0.4" stroke="#a855f7"/>
<rect x="914" y="160" width="220" height="96" rx="18" fill="#172233"/>
<rect x="914" y="272" width="206" height="96" rx="18" fill="#172233"/>
<rect x="914" y="384" width="230" height="96" rx="18" fill="#172233"/>
<rect x="336" y="184" width="140" height="12" rx="6" fill="#E2E8F0"/><rect x="336" y="208" width="108" height="10" rx="5" fill="#64748B"/>
<rect x="636" y="184" width="154" height="12" rx="6" fill="#F8FAFC"/><rect x="636" y="208" width="122" height="10" rx="5" fill="#BAE6FD"/>
<rect x="936" y="184" width="124" height="12" rx="6" fill="#E2E8F0"/><rect x="936" y="208" width="92" height="10" rx="5" fill="#64748B"/>
</svg>