<svg width="1200" height="720" viewBox="0 0 1200 720" fill="none" xmlns="http://www.w3.org/2000/svg">
<rect width="1200" height="720" rx="24" fill="#09131f"/>
<rect x="20" y="20" width="1160" height="680" rx="22" fill="#101826" stroke="#243142"/>
<rect x="20" y="20" width="1160" height="52" rx="22" fill="#0f172a"/>
<circle cx="50" cy="46" r="6" fill="#ef4444"/><circle cx="72" cy="46" r="6" fill="#f59e0b"/><circle cx="94" cy="46" r="6" fill="#22c55e"/>
<rect x="120" y="34" width="220" height="24" rx="12" fill="#1f2937"/>
<rect x="40" y="92" width="1120" height="84" rx="20" fill="#0f172a"/>
<rect x="64" y="116" width="180" height="36" rx="16" fill="#172554"/><rect x="256" y="116" width="100" height="36" rx="16" fill="#1f2937"/><rect x="368" y="116" width="100" height="36" rx="16" fill="#1f2937"/><rect x="480" y="116" width="120" height="36" rx="16" fill="#1f2937"/>
<rect x="40" y="196" width="434" height="484" rx="22" fill="#111827" stroke="#334155"/>
<rect x="492" y="196" width="668" height="484" rx="22" fill="#0d2234" stroke="#14b8a6" stroke-opacity="0.28"/>
<rect x="64" y="222" width="386" height="150" rx="18" fill="#162235"/>
<rect x="64" y="388" width="386" height="124" rx="18" fill="#172233"/>
<rect x="64" y="528" width="386" height="124" rx="18" fill="#172233"/>
<text x="88" y="266" fill="#F8FAFC" font-family="Arial" font-size="28" font-weight="700">Luxury apartment</text>
<text x="88" y="300" fill="#CBD5E1" font-family="Arial" font-size="18">2 beds • 145m² • Fifth Settlement</text>
<text x="88" y="336" fill="#99F6E4" font-family="Arial" font-size="22" font-weight="700">EGP 4,850,000</text>
<path d="M528 230H1124V646H528V230Z" fill="#10293f"/>
<path d="M582 268L646 310L702 286L772 356L846 332L930 404L1038 370" stroke="#22d3ee" stroke-width="8" stroke-linecap="round" stroke-linejoin="round"/>
<circle cx="702" cy="286" r="12" fill="#a855f7"/><circle cx="846" cy="332" r="12" fill="#14b8a6"/><circle cx="1038" cy="370" r="12" fill="#F8FAFC"/>
<rect x="556" y="590" width="184" height="14" rx="7" fill="#334155"/>
<rect x="750" y="590" width="156" height="14" rx="7" fill="#334155"/>
</svg>