<svg width="1200" height="720" viewBox="0 0 1200 720" fill="none" xmlns="http://www.w3.org/2000/svg">
<rect width="1200" height="720" rx="36" fill="#08111B"/>
<rect width="1200" height="720" rx="36" fill="url(#g)"/>
<defs>
  <linearGradient id="g" x1="120" y1="60" x2="1090" y2="650" gradientUnits="userSpaceOnUse">
    <stop stop-color="#0F172A"/>
    <stop offset="1" stop-color="#12324A"/>
  </linearGradient>
</defs>
<text x="64" y="96" fill="#A78BFA" font-family="Arial" font-size="22" font-weight="700">PROPERTY SEARCH EXPERIENCE</text>
<text x="64" y="154" fill="#F8FAFC" font-family="Arial" font-size="52" font-weight="700">Frontend Real Estate Finder</text>
<text x="64" y="198" fill="#94A3B8" font-family="Arial" font-size="24">Listing discovery, filters, map context, and detail browsing</text>
<rect x="60" y="248" width="460" height="390" rx="28" fill="#0F172A" stroke="#334155"/>
<rect x="548" y="248" width="592" height="390" rx="28" fill="#10263C" stroke="#14B8A6" stroke-opacity="0.35"/>
<rect x="92" y="284" width="170" height="42" rx="18" fill="#1E293B"/>
<rect x="276" y="284" width="120" height="42" rx="18" fill="#1E293B"/>
<rect x="92" y="352" width="396" height="112" rx="24" fill="#172554"/>
<rect x="92" y="484" width="396" height="112" rx="24" fill="#1E293B"/>
<text x="114" y="392" fill="#F8FAFC" font-family="Arial" font-size="24" font-weight="700">Modern apartment</text>
<text x="114" y="422" fill="#CBD5E1" font-family="Arial" font-size="18">3 beds • 2 baths • New Cairo</text>
<path d="M580 314H1110V608H580V314Z" fill="#0B1B2D"/>
<path d="M640 350C690 380 720 430 772 454C832 482 882 466 934 508C968 534 1012 550 1080 520" stroke="#14B8A6" stroke-width="10" stroke-linecap="round"/>
<circle cx="772" cy="454" r="16" fill="#A78BFA"/>
<circle cx="934" cy="508" r="16" fill="#22D3EE"/>
<circle cx="1080" cy="520" r="16" fill="#F8FAFC"/>
<text x="610" y="584" fill="#E2E8F0" font-family="Arial" font-size="20">Map-driven discovery flow</text>
</svg>